<mxfile host="app.diagrams.net" agent="Mozilla/5.0 (Windows NT 10.0; Win64; x64) AppleWebKit/537.36 (KHTML, like Gecko) Chrome/140.0.0.0 Safari/537.36" version="28.2.3">
  <diagram name="Page-1" id="e6WYf2_Nmz3HdsmvX9vr">
    <mxGraphModel dx="1389" dy="749" grid="1" gridSize="10" guides="1" tooltips="1" connect="1" arrows="1" fold="1" page="1" pageScale="1" pageWidth="850" pageHeight="1100" math="0" shadow="0">
      <root>
        <mxCell id="0" />
        <mxCell id="1" parent="0" />
        <mxCell id="6QP8NQXGurYi7_9vJGG8-50" value="ZK Eats" style="rounded=0;whiteSpace=wrap;html=1;fillColor=#f8cecc;strokeColor=#b85450;" vertex="1" parent="1">
          <mxGeometry x="250" y="30" width="240" height="80" as="geometry" />
        </mxCell>
        <mxCell id="6QP8NQXGurYi7_9vJGG8-52" value="Checkout&lt;div&gt;Pages &amp;amp; RTS&lt;/div&gt;" style="ellipse;whiteSpace=wrap;html=1;aspect=fixed;fillColor=#e1d5e7;strokeColor=#9673a6;" vertex="1" parent="1">
          <mxGeometry x="330" y="310" width="100" height="100" as="geometry" />
        </mxCell>
        <mxCell id="6QP8NQXGurYi7_9vJGG8-69" style="edgeStyle=orthogonalEdgeStyle;rounded=0;orthogonalLoop=1;jettySize=auto;html=1;exitX=1;exitY=0.5;exitDx=0;exitDy=0;" edge="1" parent="1" source="6QP8NQXGurYi7_9vJGG8-53">
          <mxGeometry relative="1" as="geometry">
            <mxPoint x="580" y="209.8571428571429" as="targetPoint" />
          </mxGeometry>
        </mxCell>
        <mxCell id="6QP8NQXGurYi7_9vJGG8-70" style="edgeStyle=orthogonalEdgeStyle;rounded=0;orthogonalLoop=1;jettySize=auto;html=1;exitX=0;exitY=0.5;exitDx=0;exitDy=0;" edge="1" parent="1" source="6QP8NQXGurYi7_9vJGG8-53">
          <mxGeometry relative="1" as="geometry">
            <mxPoint x="200" y="209.8571428571429" as="targetPoint" />
          </mxGeometry>
        </mxCell>
        <mxCell id="6QP8NQXGurYi7_9vJGG8-53" value="Desingning" style="ellipse;whiteSpace=wrap;html=1;aspect=fixed;fillColor=#fff2cc;strokeColor=#d6b656;" vertex="1" parent="1">
          <mxGeometry x="330" y="160" width="100" height="100" as="geometry" />
        </mxCell>
        <mxCell id="6QP8NQXGurYi7_9vJGG8-74" style="edgeStyle=orthogonalEdgeStyle;rounded=0;orthogonalLoop=1;jettySize=auto;html=1;exitX=0.5;exitY=1;exitDx=0;exitDy=0;entryX=0.5;entryY=0;entryDx=0;entryDy=0;" edge="1" parent="1" source="6QP8NQXGurYi7_9vJGG8-54" target="6QP8NQXGurYi7_9vJGG8-57">
          <mxGeometry relative="1" as="geometry" />
        </mxCell>
        <mxCell id="6QP8NQXGurYi7_9vJGG8-54" value="Compiling to Apk" style="ellipse;whiteSpace=wrap;html=1;fillColor=#d5e8d4;strokeColor=#82b366;" vertex="1" parent="1">
          <mxGeometry x="310" y="450" width="170" height="100" as="geometry" />
        </mxCell>
        <mxCell id="6QP8NQXGurYi7_9vJGG8-72" style="edgeStyle=orthogonalEdgeStyle;rounded=0;orthogonalLoop=1;jettySize=auto;html=1;exitX=0.5;exitY=1;exitDx=0;exitDy=0;entryX=1;entryY=0.5;entryDx=0;entryDy=0;" edge="1" parent="1" source="6QP8NQXGurYi7_9vJGG8-55" target="6QP8NQXGurYi7_9vJGG8-52">
          <mxGeometry relative="1" as="geometry">
            <mxPoint x="625.2857142857142" y="380" as="targetPoint" />
          </mxGeometry>
        </mxCell>
        <mxCell id="6QP8NQXGurYi7_9vJGG8-55" value="Listing Restaurants and yheir cusines" style="ellipse;whiteSpace=wrap;html=1;aspect=fixed;fillColor=#fff2cc;strokeColor=#d6b656;" vertex="1" parent="1">
          <mxGeometry x="580" y="170" width="90" height="90" as="geometry" />
        </mxCell>
        <mxCell id="6QP8NQXGurYi7_9vJGG8-71" style="edgeStyle=orthogonalEdgeStyle;rounded=0;orthogonalLoop=1;jettySize=auto;html=1;exitX=0.5;exitY=1;exitDx=0;exitDy=0;entryX=0;entryY=0.5;entryDx=0;entryDy=0;" edge="1" parent="1" source="6QP8NQXGurYi7_9vJGG8-56" target="6QP8NQXGurYi7_9vJGG8-52">
          <mxGeometry relative="1" as="geometry">
            <mxPoint x="155.28571428571445" y="410" as="targetPoint" />
          </mxGeometry>
        </mxCell>
        <mxCell id="6QP8NQXGurYi7_9vJGG8-56" value="Customer sign&lt;div&gt;up&lt;/div&gt;" style="ellipse;whiteSpace=wrap;html=1;aspect=fixed;fillColor=#fff2cc;strokeColor=#d6b656;" vertex="1" parent="1">
          <mxGeometry x="110" y="165" width="90" height="90" as="geometry" />
        </mxCell>
        <mxCell id="6QP8NQXGurYi7_9vJGG8-77" style="edgeStyle=orthogonalEdgeStyle;rounded=0;orthogonalLoop=1;jettySize=auto;html=1;exitX=1;exitY=1;exitDx=0;exitDy=0;" edge="1" parent="1" source="6QP8NQXGurYi7_9vJGG8-57" target="6QP8NQXGurYi7_9vJGG8-58">
          <mxGeometry relative="1" as="geometry" />
        </mxCell>
        <mxCell id="6QP8NQXGurYi7_9vJGG8-57" value="No Bugs Found" style="rhombus;whiteSpace=wrap;html=1;fillColor=#ffcd28;strokeColor=#d79b00;gradientColor=#ffa500;" vertex="1" parent="1">
          <mxGeometry x="345" y="590" width="100" height="110" as="geometry" />
        </mxCell>
        <mxCell id="6QP8NQXGurYi7_9vJGG8-78" style="edgeStyle=orthogonalEdgeStyle;rounded=0;orthogonalLoop=1;jettySize=auto;html=1;exitX=0.5;exitY=1;exitDx=0;exitDy=0;" edge="1" parent="1" source="6QP8NQXGurYi7_9vJGG8-58" target="6QP8NQXGurYi7_9vJGG8-59">
          <mxGeometry relative="1" as="geometry" />
        </mxCell>
        <mxCell id="6QP8NQXGurYi7_9vJGG8-58" value="Writing Permissions for Deployment" style="shape=parallelogram;perimeter=parallelogramPerimeter;whiteSpace=wrap;html=1;fixedSize=1;fillColor=#dae8fc;strokeColor=#6c8ebf;" vertex="1" parent="1">
          <mxGeometry x="305" y="740" width="180" height="80" as="geometry" />
        </mxCell>
        <mxCell id="6QP8NQXGurYi7_9vJGG8-59" value="Pushed to Appstore" style="shape=cylinder3;whiteSpace=wrap;html=1;boundedLbl=1;backgroundOutline=1;size=15;fillColor=#e6d0de;gradientColor=#d5739d;strokeColor=#996185;" vertex="1" parent="1">
          <mxGeometry x="345" y="870" width="90" height="110" as="geometry" />
        </mxCell>
        <mxCell id="6QP8NQXGurYi7_9vJGG8-60" value="Actor" style="shape=umlActor;verticalLabelPosition=bottom;verticalAlign=top;html=1;outlineConnect=0;fillColor=#f5f5f5;gradientColor=#b3b3b3;strokeColor=#666666;" vertex="1" parent="1">
          <mxGeometry x="350" y="1080" width="85" height="110" as="geometry" />
        </mxCell>
        <mxCell id="6QP8NQXGurYi7_9vJGG8-64" value="Customer Using Application" style="text;html=1;align=center;verticalAlign=middle;resizable=0;points=[];autosize=1;strokeColor=none;fillColor=none;" vertex="1" parent="1">
          <mxGeometry x="305" y="1180" width="170" height="30" as="geometry" />
        </mxCell>
        <mxCell id="6QP8NQXGurYi7_9vJGG8-65" value="Recieved No Feedback" style="ellipse;shape=cloud;whiteSpace=wrap;html=1;fillColor=#ffff88;strokeColor=#36393d;" vertex="1" parent="1">
          <mxGeometry x="325" y="1240" width="120" height="80" as="geometry" />
        </mxCell>
        <mxCell id="6QP8NQXGurYi7_9vJGG8-68" style="edgeStyle=orthogonalEdgeStyle;rounded=0;orthogonalLoop=1;jettySize=auto;html=1;exitX=0.5;exitY=1;exitDx=0;exitDy=0;entryX=0.393;entryY=0.059;entryDx=0;entryDy=0;entryPerimeter=0;" edge="1" parent="1" source="6QP8NQXGurYi7_9vJGG8-50" target="6QP8NQXGurYi7_9vJGG8-53">
          <mxGeometry relative="1" as="geometry" />
        </mxCell>
        <mxCell id="6QP8NQXGurYi7_9vJGG8-73" style="edgeStyle=orthogonalEdgeStyle;rounded=0;orthogonalLoop=1;jettySize=auto;html=1;exitX=0.5;exitY=1;exitDx=0;exitDy=0;entryX=0.409;entryY=0;entryDx=0;entryDy=0;entryPerimeter=0;" edge="1" parent="1" source="6QP8NQXGurYi7_9vJGG8-52" target="6QP8NQXGurYi7_9vJGG8-54">
          <mxGeometry relative="1" as="geometry" />
        </mxCell>
        <mxCell id="6QP8NQXGurYi7_9vJGG8-75" style="edgeStyle=orthogonalEdgeStyle;rounded=0;orthogonalLoop=1;jettySize=auto;html=1;exitX=0.5;exitY=1;exitDx=0;exitDy=0;exitPerimeter=0;entryX=0.5;entryY=0;entryDx=0;entryDy=0;entryPerimeter=0;" edge="1" parent="1" source="6QP8NQXGurYi7_9vJGG8-59" target="6QP8NQXGurYi7_9vJGG8-60">
          <mxGeometry relative="1" as="geometry" />
        </mxCell>
        <mxCell id="6QP8NQXGurYi7_9vJGG8-76" style="edgeStyle=orthogonalEdgeStyle;rounded=0;orthogonalLoop=1;jettySize=auto;html=1;exitX=0.5;exitY=0.5;exitDx=0;exitDy=0;exitPerimeter=0;entryX=0.531;entryY=0.145;entryDx=0;entryDy=0;entryPerimeter=0;" edge="1" parent="1" source="6QP8NQXGurYi7_9vJGG8-60" target="6QP8NQXGurYi7_9vJGG8-65">
          <mxGeometry relative="1" as="geometry" />
        </mxCell>
      </root>
    </mxGraphModel>
  </diagram>
</mxfile>
